<?xml version="1.0" encoding="UTF-8"?>
<svg xmlns="http://www.w3.org/2000/svg" xmlns:xlink="http://www.w3.org/1999/xlink" viewBox="0 0 1559.27 2432.6">
  <defs>
    <style>
      .cls-1 {
        fill: url(#linear-gradient-38);
      }

      .cls-1, .cls-2, .cls-3, .cls-4, .cls-5, .cls-6, .cls-7, .cls-8, .cls-9, .cls-10, .cls-11, .cls-12, .cls-13, .cls-14, .cls-15, .cls-16, .cls-17, .cls-18, .cls-19, .cls-20, .cls-21, .cls-22, .cls-23, .cls-24, .cls-25, .cls-26, .cls-27, .cls-28, .cls-29, .cls-30, .cls-31, .cls-32, .cls-33, .cls-34, .cls-35, .cls-36, .cls-37, .cls-38, .cls-39, .cls-40, .cls-41, .cls-42, .cls-43, .cls-44, .cls-45, .cls-46, .cls-47, .cls-48, .cls-49, .cls-50, .cls-51, .cls-52, .cls-53, .cls-54, .cls-55, .cls-56, .cls-57, .cls-58, .cls-59, .cls-60, .cls-61, .cls-62, .cls-63, .cls-64, .cls-65, .cls-66, .cls-67, .cls-68, .cls-69, .cls-70, .cls-71, .cls-72, .cls-73, .cls-74, .cls-75, .cls-76, .cls-77, .cls-78, .cls-79 {
        stroke-width: 0px;
      }

      .cls-2 {
        fill: url(#linear-gradient-12);
      }

      .cls-3 {
        fill: url(#linear-gradient-17);
      }

      .cls-4 {
        fill: url(#linear-gradient-19);
      }

      .cls-5 {
        fill: url(#linear-gradient-33);
      }

      .cls-6 {
        fill: url(#linear-gradient);
      }

      .cls-7 {
        fill: url(#linear-gradient-62);
      }

      .cls-80 {
        filter: url(#outer-glow-3);
      }

      .cls-8 {
        fill: url(#linear-gradient-67);
      }

      .cls-9 {
        fill: url(#linear-gradient-57);
      }

      .cls-10 {
        filter: url(#outer-glow-10);
      }

      .cls-10, .cls-14, .cls-18, .cls-25, .cls-41, .cls-43, .cls-46, .cls-51, .cls-54, .cls-57, .cls-78 {
        fill: #fff392;
      }

      .cls-11 {
        fill: url(#linear-gradient-21);
      }

      .cls-12 {
        fill: url(#linear-gradient-6);
      }

      .cls-81 {
        isolation: isolate;
      }

      .cls-13 {
        fill: url(#linear-gradient-42);
      }

      .cls-14 {
        filter: url(#outer-glow-14);
      }

      .cls-15 {
        fill: url(#linear-gradient-15);
      }

      .cls-16 {
        fill: url(#linear-gradient-11);
      }

      .cls-17 {
        fill: url(#linear-gradient-5);
      }

      .cls-18 {
        filter: url(#outer-glow-11);
      }

      .cls-82 {
        filter: url(#outer-glow-1);
      }

      .cls-19 {
        fill: url(#linear-gradient-31);
      }

      .cls-20 {
        fill: url(#linear-gradient-58);
      }

      .cls-21 {
        fill: url(#linear-gradient-63);
      }

      .cls-22 {
        fill: url(#linear-gradient-34);
      }

      .cls-23 {
        fill: url(#linear-gradient-41);
      }

      .cls-24 {
        fill: url(#linear-gradient-66);
      }

      .cls-25 {
        filter: url(#outer-glow-7);
      }

      .cls-26 {
        fill: url(#linear-gradient-13);
      }

      .cls-27 {
        fill: url(#linear-gradient-23);
      }

      .cls-28 {
        fill: url(#linear-gradient-25);
      }

      .cls-29 {
        fill: url(#linear-gradient-43);
      }

      .cls-30 {
        fill: url(#linear-gradient-16);
      }

      .cls-31 {
        fill: url(#linear-gradient-22);
      }

      .cls-32 {
        fill: url(#linear-gradient-54);
      }

      .cls-33 {
        fill: url(#linear-gradient-55);
      }

      .cls-83 {
        filter: url(#outer-glow-19);
      }

      .cls-34 {
        fill: url(#linear-gradient-35);
      }

      .cls-35 {
        fill: url(#linear-gradient-50);
      }

      .cls-36 {
        fill: url(#linear-gradient-32);
      }

      .cls-37 {
        fill: url(#linear-gradient-60);
      }

      .cls-38 {
        fill: url(#linear-gradient-59);
      }

      .cls-39 {
        fill: url(#linear-gradient-20);
      }

      .cls-40 {
        fill: url(#linear-gradient-14);
      }

      .cls-41 {
        filter: url(#outer-glow-12);
      }

      .cls-42 {
        fill: url(#linear-gradient-2);
      }

      .cls-43 {
        filter: url(#outer-glow-9);
      }

      .cls-44 {
        fill: url(#linear-gradient-52);
      }

      .cls-45 {
        fill: url(#linear-gradient-45);
      }

      .cls-47 {
        fill: url(#linear-gradient-7);
      }

      .cls-48 {
        fill: url(#linear-gradient-39);
      }

      .cls-49 {
        fill: url(#linear-gradient-3);
      }

      .cls-84 {
        filter: url(#outer-glow-8);
      }

      .cls-50 {
        fill: url(#linear-gradient-27);
      }

      .cls-85 {
        filter: url(#outer-glow-18);
      }

      .cls-86 {
        filter: url(#outer-glow-5);
      }

      .cls-51 {
        filter: url(#outer-glow-15);
      }

      .cls-52 {
        fill: url(#linear-gradient-53);
      }

      .cls-53 {
        fill: url(#linear-gradient-65);
      }

      .cls-54 {
        filter: url(#outer-glow-4);
      }

      .cls-55 {
        fill: url(#linear-gradient-36);
      }

      .cls-56 {
        fill: url(#linear-gradient-48);
      }

      .cls-57 {
        filter: url(#outer-glow-6);
      }

      .cls-58 {
        fill: url(#linear-gradient-49);
      }

      .cls-59 {
        fill: url(#linear-gradient-8);
      }

      .cls-60 {
        fill: url(#linear-gradient-47);
      }

      .cls-87 {
        filter: url(#outer-glow-17);
      }

      .cls-61 {
        fill: url(#linear-gradient-24);
      }

      .cls-62 {
        fill: url(#linear-gradient-26);
      }

      .cls-63 {
        fill: url(#linear-gradient-61);
      }

      .cls-64 {
        fill: url(#linear-gradient-18);
      }

      .cls-65 {
        fill: url(#linear-gradient-51);
      }

      .cls-66 {
        fill: url(#linear-gradient-30);
      }

      .cls-67 {
        fill: url(#linear-gradient-44);
      }

      .cls-68 {
        fill: url(#linear-gradient-68);
      }

      .cls-69 {
        fill: url(#linear-gradient-29);
      }

      .cls-70 {
        fill: url(#linear-gradient-46);
      }

      .cls-88 {
        filter: url(#outer-glow-16);
      }

      .cls-71 {
        fill: url(#linear-gradient-64);
      }

      .cls-72 {
        fill: url(#linear-gradient-40);
        opacity: .41;
      }

      .cls-73 {
        fill: url(#linear-gradient-28);
      }

      .cls-74 {
        fill: url(#linear-gradient-56);
      }

      .cls-75 {
        fill: url(#linear-gradient-10);
      }

      .cls-76 {
        fill: url(#linear-gradient-9);
        mix-blend-mode: multiply;
        opacity: .7;
      }

      .cls-77 {
        fill: url(#linear-gradient-4);
      }

      .cls-78 {
        filter: url(#outer-glow-13);
      }

      .cls-79 {
        fill: url(#linear-gradient-37);
      }

      .cls-89 {
        filter: url(#outer-glow-2);
      }
    </style>
    <linearGradient id="linear-gradient" x1="243.83" y1="1603.7" x2="259.47" y2="1603.7" gradientUnits="userSpaceOnUse">
      <stop offset=".12" stop-color="#000019"/>
      <stop offset=".29" stop-color="#01011c"/>
      <stop offset=".45" stop-color="#060628"/>
      <stop offset=".62" stop-color="#0e0f3b"/>
      <stop offset=".78" stop-color="#1a1a56"/>
      <stop offset=".94" stop-color="#292979"/>
      <stop offset="1" stop-color="#30318a"/>
    </linearGradient>
    <linearGradient id="linear-gradient-2" x1="167.48" y1="1528.27" x2="189.55" y2="1528.27" xlink:href="#linear-gradient"/>
    <linearGradient id="linear-gradient-3" x1="214.81" y1="1641.04" x2="208.92" y2="3095.74" xlink:href="#linear-gradient"/>
    <filter id="outer-glow-1" filterUnits="userSpaceOnUse">
      <feOffset dx="0" dy="0"/>
      <feGaussianBlur result="blur" stdDeviation="5"/>
      <feFlood flood-color="#ebff57" flood-opacity=".75"/>
      <feComposite in2="blur" operator="in"/>
      <feComposite in="SourceGraphic"/>
    </filter>
    <linearGradient id="linear-gradient-4" x1="517.22" y1="332.45" x2="1025" y2="332.45" xlink:href="#linear-gradient"/>
    <linearGradient id="linear-gradient-5" x1="773.61" y1="1578.8" x2="773.61" y2="2984.55" gradientUnits="userSpaceOnUse">
      <stop offset="0" stop-color="#000019"/>
      <stop offset=".2" stop-color="#01011c"/>
      <stop offset=".38" stop-color="#060628"/>
      <stop offset=".57" stop-color="#0e0f3b"/>
      <stop offset=".75" stop-color="#1a1a56"/>
      <stop offset=".93" stop-color="#292979"/>
      <stop offset="1" stop-color="#30318a"/>
    </linearGradient>
    <linearGradient id="linear-gradient-6" x1="1240.63" y1="1637.69" x2="1240.63" y2="2501.49" xlink:href="#linear-gradient-5"/>
    <linearGradient id="linear-gradient-7" x1="305.68" y1="1637.69" x2="305.68" y2="2501.49" xlink:href="#linear-gradient-5"/>
    <linearGradient id="linear-gradient-8" x1="313.47" y1="1032.81" x2="313.47" y2="2713.44" xlink:href="#linear-gradient"/>
    <linearGradient id="linear-gradient-9" x1="803.07" y1="2026.76" x2="1062.48" y2="2026.76" xlink:href="#linear-gradient"/>
    <linearGradient id="linear-gradient-10" x1="790.18" y1="1440.33" x2="766.62" y2="3493.79" gradientUnits="userSpaceOnUse">
      <stop offset=".12" stop-color="#000019"/>
      <stop offset=".38" stop-color="#000019"/>
      <stop offset=".39" stop-color="#000019"/>
      <stop offset=".49" stop-color="#02021e"/>
      <stop offset=".61" stop-color="#08082d"/>
      <stop offset=".74" stop-color="#121345"/>
      <stop offset=".88" stop-color="#212267"/>
      <stop offset="1" stop-color="#30318a"/>
    </linearGradient>
    <linearGradient id="linear-gradient-11" x1="767.14" y1="1822.76" x2="757.33" y2="2378.33" xlink:href="#linear-gradient"/>
    <linearGradient id="linear-gradient-12" x1="585.03" y1="2325.64" x2="962.19" y2="2325.64" gradientUnits="userSpaceOnUse">
      <stop offset=".94" stop-color="#000019"/>
      <stop offset=".95" stop-color="#01011c"/>
      <stop offset=".96" stop-color="#060628"/>
      <stop offset=".97" stop-color="#0e0f3b"/>
      <stop offset=".98" stop-color="#1a1a56"/>
      <stop offset="1" stop-color="#292979"/>
      <stop offset="1" stop-color="#30318a"/>
    </linearGradient>
    <filter id="outer-glow-2" filterUnits="userSpaceOnUse">
      <feOffset dx="0" dy="0"/>
      <feGaussianBlur result="blur-2" stdDeviation="5"/>
      <feFlood flood-color="#ebff57" flood-opacity=".75"/>
      <feComposite in2="blur-2" operator="in"/>
      <feComposite in="SourceGraphic"/>
    </filter>
    <filter id="outer-glow-3" filterUnits="userSpaceOnUse">
      <feOffset dx="0" dy="0"/>
      <feGaussianBlur result="blur-3" stdDeviation="5"/>
      <feFlood flood-color="#ebff57" flood-opacity=".75"/>
      <feComposite in2="blur-3" operator="in"/>
      <feComposite in="SourceGraphic"/>
    </filter>
    <linearGradient id="linear-gradient-13" x1="493.44" y1="1646.36" x2="487.55" y2="3101.06" gradientUnits="userSpaceOnUse">
      <stop offset=".61" stop-color="#000019"/>
      <stop offset=".69" stop-color="#01011c"/>
      <stop offset=".76" stop-color="#060628"/>
      <stop offset=".83" stop-color="#0e0f3b"/>
      <stop offset=".9" stop-color="#1a1a56"/>
      <stop offset=".97" stop-color="#292979"/>
      <stop offset="1" stop-color="#30318a"/>
    </linearGradient>
    <linearGradient id="linear-gradient-14" x1="1049.66" y1="1644.42" x2="1043.77" y2="3099.12" xlink:href="#linear-gradient-13"/>
    <linearGradient id="linear-gradient-15" x1="1335.54" y1="1645.58" x2="1329.66" y2="3100.28" xlink:href="#linear-gradient-13"/>
    <filter id="outer-glow-4" filterUnits="userSpaceOnUse">
      <feOffset dx="0" dy="0"/>
      <feGaussianBlur result="blur-4" stdDeviation="5"/>
      <feFlood flood-color="#ebff57" flood-opacity=".75"/>
      <feComposite in2="blur-4" operator="in"/>
      <feComposite in="SourceGraphic"/>
    </filter>
    <linearGradient id="linear-gradient-16" x1="1217.07" y1="1415.99" x2="1217.07" y2="1884.63" xlink:href="#linear-gradient"/>
    <linearGradient id="linear-gradient-17" x1="1009.93" y1="1468.35" x2="1070.79" y2="2061.22" xlink:href="#linear-gradient"/>
    <linearGradient id="linear-gradient-18" x1="941.66" y1="1475.36" x2="1002.52" y2="2068.23" xlink:href="#linear-gradient"/>
    <linearGradient id="linear-gradient-19" x1="1078.21" y1="1461.34" x2="1139.07" y2="2054.21" xlink:href="#linear-gradient"/>
    <linearGradient id="linear-gradient-20" x1="1146.48" y1="1454.33" x2="1207.34" y2="2047.21" xlink:href="#linear-gradient"/>
    <linearGradient id="linear-gradient-21" x1="1214.75" y1="1447.33" x2="1275.61" y2="2040.2" xlink:href="#linear-gradient"/>
    <linearGradient id="linear-gradient-22" x1="1283.02" y1="1440.32" x2="1343.88" y2="2033.19" xlink:href="#linear-gradient"/>
    <linearGradient id="linear-gradient-23" x1="1351.3" y1="1433.31" x2="1412.15" y2="2026.18" xlink:href="#linear-gradient"/>
    <linearGradient id="linear-gradient-24" x1="1419.57" y1="1426.3" x2="1480.43" y2="2019.17" xlink:href="#linear-gradient"/>
    <linearGradient id="linear-gradient-25" x1="1487.84" y1="1419.29" x2="1548.7" y2="2012.17" xlink:href="#linear-gradient"/>
    <linearGradient id="linear-gradient-26" x1="31.85" y1="1482.27" x2="571.83" y2="1482.27" gradientUnits="userSpaceOnUse">
      <stop offset=".85" stop-color="#000019"/>
      <stop offset=".88" stop-color="#01011c"/>
      <stop offset=".91" stop-color="#060628"/>
      <stop offset=".93" stop-color="#0e0f3b"/>
      <stop offset=".96" stop-color="#1a1a56"/>
      <stop offset=".99" stop-color="#292979"/>
      <stop offset="1" stop-color="#30318a"/>
    </linearGradient>
    <linearGradient id="linear-gradient-27" x1="20.67" y1="1772.96" x2="560.65" y2="1772.96" xlink:href="#linear-gradient"/>
    <linearGradient id="linear-gradient-28" x1="998.14" y1="1786.58" x2="1538.11" y2="1786.58" xlink:href="#linear-gradient"/>
    <linearGradient id="linear-gradient-29" x1="342.26" y1="735.78" x2="342.26" y2="2015.85" xlink:href="#linear-gradient"/>
    <linearGradient id="linear-gradient-30" x1=".06" y1="1454.67" x2="599.82" y2="1454.67" xlink:href="#linear-gradient"/>
    <linearGradient id="linear-gradient-31" x1="237.32" y1="964.52" x2="64.56" y2="1712.48" xlink:href="#linear-gradient"/>
    <linearGradient id="linear-gradient-32" x1="302.81" y1="979.65" x2="130.06" y2="1727.61" xlink:href="#linear-gradient"/>
    <linearGradient id="linear-gradient-33" x1="368.31" y1="994.77" x2="195.55" y2="1742.74" xlink:href="#linear-gradient"/>
    <linearGradient id="linear-gradient-34" x1="433.81" y1="1009.9" x2="261.05" y2="1757.87" xlink:href="#linear-gradient"/>
    <linearGradient id="linear-gradient-35" x1="499.31" y1="1025.03" x2="326.55" y2="1772.99" xlink:href="#linear-gradient"/>
    <linearGradient id="linear-gradient-36" x1="562.07" y1="1039.53" x2="389.31" y2="1787.49" xlink:href="#linear-gradient"/>
    <linearGradient id="linear-gradient-37" x1="601.11" y1="1048.54" x2="428.35" y2="1796.51" xlink:href="#linear-gradient"/>
    <linearGradient id="linear-gradient-38" x1="640.15" y1="1057.56" x2="467.39" y2="1805.52" xlink:href="#linear-gradient"/>
    <filter id="outer-glow-5" filterUnits="userSpaceOnUse">
      <feOffset dx="0" dy="0"/>
      <feGaussianBlur result="blur-5" stdDeviation="5"/>
      <feFlood flood-color="#ebff57" flood-opacity=".75"/>
      <feComposite in2="blur-5" operator="in"/>
      <feComposite in="SourceGraphic"/>
    </filter>
    <filter id="outer-glow-6" filterUnits="userSpaceOnUse">
      <feOffset dx="0" dy="0"/>
      <feGaussianBlur result="blur-6" stdDeviation="5"/>
      <feFlood flood-color="#ebff57" flood-opacity=".75"/>
      <feComposite in2="blur-6" operator="in"/>
      <feComposite in="SourceGraphic"/>
    </filter>
    <filter id="outer-glow-7" filterUnits="userSpaceOnUse">
      <feOffset dx="0" dy="0"/>
      <feGaussianBlur result="blur-7" stdDeviation="5"/>
      <feFlood flood-color="#ebff57" flood-opacity=".75"/>
      <feComposite in2="blur-7" operator="in"/>
      <feComposite in="SourceGraphic"/>
    </filter>
    <linearGradient id="linear-gradient-39" x1="577.93" y1="307.61" x2="964.29" y2="307.61" xlink:href="#linear-gradient"/>
    <linearGradient id="linear-gradient-40" x1="732.47" y1="307.64" x2="961.19" y2="307.64" xlink:href="#linear-gradient"/>
    <linearGradient id="linear-gradient-41" x1="771.11" y1="159.63" x2="771.11" y2="2224.93" xlink:href="#linear-gradient"/>
    <filter id="outer-glow-8" filterUnits="userSpaceOnUse">
      <feOffset dx="0" dy="0"/>
      <feGaussianBlur result="blur-8" stdDeviation="5"/>
      <feFlood flood-color="#ebff57" flood-opacity=".75"/>
      <feComposite in2="blur-8" operator="in"/>
      <feComposite in="SourceGraphic"/>
    </filter>
    <filter id="outer-glow-9" filterUnits="userSpaceOnUse">
      <feOffset dx="0" dy="0"/>
      <feGaussianBlur result="blur-9" stdDeviation="5"/>
      <feFlood flood-color="#ebff57" flood-opacity=".75"/>
      <feComposite in2="blur-9" operator="in"/>
      <feComposite in="SourceGraphic"/>
    </filter>
    <linearGradient id="linear-gradient-42" x1="771.11" y1="22.21" x2="771.11" y2="941" gradientUnits="userSpaceOnUse">
      <stop offset=".12" stop-color="#000019"/>
      <stop offset=".23" stop-color="#01011c"/>
      <stop offset=".33" stop-color="#060628"/>
      <stop offset=".44" stop-color="#0e0f3b"/>
      <stop offset=".54" stop-color="#1a1b56"/>
      <stop offset=".64" stop-color="#292a79"/>
      <stop offset=".66" stop-color="#2c2d80"/>
      <stop offset="1" stop-color="#30318a"/>
    </linearGradient>
    <linearGradient id="linear-gradient-43" x1="552.41" y1="22.21" x2="552.41" y2="941" xlink:href="#linear-gradient-42"/>
    <linearGradient id="linear-gradient-44" x1="989.81" y1="22.21" x2="989.81" y2="941" xlink:href="#linear-gradient-42"/>
    <linearGradient id="linear-gradient-45" x1="661.76" y1="22.21" x2="661.76" y2="941" xlink:href="#linear-gradient-42"/>
    <linearGradient id="linear-gradient-46" x1="771.11" y1="22.21" x2="771.11" y2="941" xlink:href="#linear-gradient-42"/>
    <linearGradient id="linear-gradient-47" x1="880.46" y1="22.21" x2="880.46" y2="941" xlink:href="#linear-gradient-42"/>
    <filter id="outer-glow-10" filterUnits="userSpaceOnUse">
      <feOffset dx="0" dy="0"/>
      <feGaussianBlur result="blur-10" stdDeviation="5"/>
      <feFlood flood-color="#ebff57" flood-opacity=".75"/>
      <feComposite in2="blur-10" operator="in"/>
      <feComposite in="SourceGraphic"/>
    </filter>
    <filter id="outer-glow-11" filterUnits="userSpaceOnUse">
      <feOffset dx="0" dy="0"/>
      <feGaussianBlur result="blur-11" stdDeviation="5"/>
      <feFlood flood-color="#ebff57" flood-opacity=".75"/>
      <feComposite in2="blur-11" operator="in"/>
      <feComposite in="SourceGraphic"/>
    </filter>
    <linearGradient id="linear-gradient-48" x1="776.44" y1="1533.61" x2="780.37" y2="1814.34" xlink:href="#linear-gradient"/>
    <linearGradient id="linear-gradient-49" x1="774.06" y1="1555.64" x2="744.62" y2="3202.72" xlink:href="#linear-gradient"/>
    <filter id="outer-glow-12" filterUnits="userSpaceOnUse">
      <feOffset dx="0" dy="0"/>
      <feGaussianBlur result="blur-12" stdDeviation="5"/>
      <feFlood flood-color="#ebff57" flood-opacity=".75"/>
      <feComposite in2="blur-12" operator="in"/>
      <feComposite in="SourceGraphic"/>
    </filter>
    <linearGradient id="linear-gradient-50" x1="663.47" y1="2222.15" x2="699.72" y2="2222.15" xlink:href="#linear-gradient-5"/>
    <filter id="outer-glow-13" filterUnits="userSpaceOnUse">
      <feOffset dx="0" dy="0"/>
      <feGaussianBlur result="blur-13" stdDeviation="5"/>
      <feFlood flood-color="#ebff57" flood-opacity=".75"/>
      <feComposite in2="blur-13" operator="in"/>
      <feComposite in="SourceGraphic"/>
    </filter>
    <linearGradient id="linear-gradient-51" x1="546.39" y1="2221.69" x2="605.89" y2="2221.69" xlink:href="#linear-gradient-5"/>
    <linearGradient id="linear-gradient-52" x1="622.25" y1="1805.13" x2="622.25" y2="2366.61" xlink:href="#linear-gradient"/>
    <filter id="outer-glow-14" filterUnits="userSpaceOnUse">
      <feOffset dx="0" dy="0"/>
      <feGaussianBlur result="blur-14" stdDeviation="5"/>
      <feFlood flood-color="#ebff57" flood-opacity=".75"/>
      <feComposite in2="blur-14" operator="in"/>
      <feComposite in="SourceGraphic"/>
    </filter>
    <linearGradient id="linear-gradient-53" x1="838.95" y1="2222.15" x2="875.2" y2="2222.15" xlink:href="#linear-gradient-5"/>
    <filter id="outer-glow-15" filterUnits="userSpaceOnUse">
      <feOffset dx="0" dy="0"/>
      <feGaussianBlur result="blur-15" stdDeviation="5"/>
      <feFlood flood-color="#ebff57" flood-opacity=".75"/>
      <feComposite in2="blur-15" operator="in"/>
      <feComposite in="SourceGraphic"/>
    </filter>
    <linearGradient id="linear-gradient-54" x1="932.78" y1="2221.69" x2="992.29" y2="2221.69" xlink:href="#linear-gradient-5"/>
    <linearGradient id="linear-gradient-55" x1="916.43" y1="1805.13" x2="916.43" y2="2366.61" xlink:href="#linear-gradient"/>
    <filter id="outer-glow-16" filterUnits="userSpaceOnUse">
      <feOffset dx="0" dy="0"/>
      <feGaussianBlur result="blur-16" stdDeviation="5"/>
      <feFlood flood-color="#ebff57" flood-opacity=".75"/>
      <feComposite in2="blur-16" operator="in"/>
      <feComposite in="SourceGraphic"/>
    </filter>
    <linearGradient id="linear-gradient-56" x1="524.39" y1="1630.83" x2="1032.17" y2="1630.83" xlink:href="#linear-gradient"/>
    <linearGradient id="linear-gradient-57" x1="778.28" y1="733.78" x2="778.28" y2="2013.85" xlink:href="#linear-gradient"/>
    <linearGradient id="linear-gradient-58" x1="535.74" y1="1355.27" x2="539.67" y2="1828.39" xlink:href="#linear-gradient"/>
    <linearGradient id="linear-gradient-59" x1="605.01" y1="1354.69" x2="608.94" y2="1827.81" xlink:href="#linear-gradient"/>
    <linearGradient id="linear-gradient-60" x1="674.29" y1="1354.12" x2="678.21" y2="1827.24" xlink:href="#linear-gradient"/>
    <linearGradient id="linear-gradient-61" x1="743.56" y1="1353.54" x2="747.49" y2="1826.66" xlink:href="#linear-gradient"/>
    <linearGradient id="linear-gradient-62" x1="812.42" y1="1352.97" x2="816.35" y2="1826.09" xlink:href="#linear-gradient"/>
    <linearGradient id="linear-gradient-63" x1="881.12" y1="1352.4" x2="885.05" y2="1825.52" xlink:href="#linear-gradient"/>
    <linearGradient id="linear-gradient-64" x1="949.82" y1="1351.83" x2="953.75" y2="1824.95" xlink:href="#linear-gradient"/>
    <linearGradient id="linear-gradient-65" x1="1018.52" y1="1351.26" x2="1022.45" y2="1824.38" xlink:href="#linear-gradient"/>
    <linearGradient id="linear-gradient-66" x1="524.39" y1="1707.41" x2="1032.17" y2="1707.41" xlink:href="#linear-gradient"/>
    <filter id="outer-glow-17" filterUnits="userSpaceOnUse">
      <feOffset dx="0" dy="0"/>
      <feGaussianBlur result="blur-17" stdDeviation="5"/>
      <feFlood flood-color="#ebff57" flood-opacity=".75"/>
      <feComposite in2="blur-17" operator="in"/>
      <feComposite in="SourceGraphic"/>
    </filter>
    <filter id="outer-glow-18" filterUnits="userSpaceOnUse">
      <feOffset dx="0" dy="0"/>
      <feGaussianBlur result="blur-18" stdDeviation="5"/>
      <feFlood flood-color="#ebff57" flood-opacity=".75"/>
      <feComposite in2="blur-18" operator="in"/>
      <feComposite in="SourceGraphic"/>
    </filter>
    <filter id="outer-glow-19" filterUnits="userSpaceOnUse">
      <feOffset dx="0" dy="0"/>
      <feGaussianBlur result="blur-19" stdDeviation="5"/>
      <feFlood flood-color="#ebff57" flood-opacity=".75"/>
      <feComposite in2="blur-19" operator="in"/>
      <feComposite in="SourceGraphic"/>
    </filter>
    <linearGradient id="linear-gradient-67" x1="502.85" y1="1733.78" x2="1042.82" y2="1733.78" xlink:href="#linear-gradient"/>
    <linearGradient id="linear-gradient-68" x1="214.8" y1="1641.17" x2="208.91" y2="3095.87" xlink:href="#linear-gradient-13"/>
  </defs>
  <g class="cls-81">
    <g id="Layer_2" data-name="Layer 2">
      <g id="Layer_4" data-name="Layer 4">
        <g>
          <rect class="cls-6" x="243.83" y="1450.08" width="15.64" height="307.24"/>
          <rect class="cls-42" x="167.48" y="1503.43" width="22.08" height="49.67"/>
          <path class="cls-49" d="m290.11,2090.4c0-45.6-39.51-81.98-86.16-76.77-61.17,4.64-90.5,86.39-48.14,128.89.77.85.21,2.19-.94,2.19h-10.95v250.61h137.83v-250.61c-30.77,2.09,8.73-6.43,8.35-54.3Z"/>
          <g class="cls-82">
            <path class="cls-46" d="m771.11,80.54c-3,0-5.43-2.43-5.43-5.43V5.43c0-3,2.43-5.43,5.43-5.43s5.43,2.43,5.43,5.43v69.68c0,3-2.43,5.43-5.43,5.43Z"/>
            <path class="cls-46" d="m793.88,133.06c-.51,29.93-45.03,29.92-45.53,0,.51-29.93,45.03-29.92,45.53,0Z"/>
            <path class="cls-46" d="m786.29,99.95c-.09,19.85-30.27,19.85-30.36,0,.09-19.85,30.27-19.85,30.36,0Z"/>
            <path class="cls-46" d="m783.53,75.11c-.07,16.24-24.77,16.24-24.84,0,.07-16.24,24.77-16.24,24.84,0Z"/>
            <path class="cls-46" d="m781.46,53.03c-.06,13.53-20.64,13.53-20.7,0,.06-13.53,20.64-13.53,20.7,0Z"/>
            <path class="cls-46" d="m781.46,34.4c-.06,13.53-20.64,13.53-20.7,0,.06-13.53,20.64-13.53,20.7,0Z"/>
          </g>
          <rect class="cls-77" x="517.22" y="324.17" width="507.78" height="16.56"/>
          <g>
            <rect class="cls-17" x="27.71" y="1866.61" width="1491.8" height="547.33"/>
            <path class="cls-12" d="m1429.24,2143.5h-14.95c-1.57,0-2.34-1.77-1.28-2.89,58.22-57.08,17.09-164.31-65.71-170.31-94.93-13.07-155.56,104.23-89.97,170.3,1.05,1.12.28,2.9-1.29,2.9h-14.94v273.21h-96.92v-273.21h-14.95c-1.57,0-2.34-1.77-1.28-2.89,98.18-113.69-82.59-242.27-166.21-124.61v-229.42h557.76v630.12h-90.27v-273.21Z"/>
            <path class="cls-47" d="m117.06,2143.5h14.95c1.57,0,2.34-1.77,1.28-2.89-58.22-57.08-17.09-164.31,65.71-170.31,94.93-13.07,155.56,104.23,89.97,170.3-1.06,1.12-.28,2.9,1.29,2.9h14.94v273.21h96.92v-273.21h14.95c1.57,0,2.34-1.77,1.28-2.89-98.18-113.69,82.59-242.27,166.21-124.61v-152.15H26.79v552.85h90.27v-273.21Z"/>
          </g>
          <rect class="cls-59" x="22.71" y="1454.13" width="581.52" height="415.79"/>
          <path class="cls-76" d="m992.98,2238.33v-23.92h5.4v-333h-.69c0-70.03-6.34-95.75,26.16-136.14v-88.31h38.64l-19.32-19.32h-240.09v165.58h0v612.65h182.64v-177.54h7.26Z"/>
          <rect class="cls-75" x="582.53" y="1866.61" width="399.23" height="547.33"/>
          <rect class="cls-16" x="676.36" y="1892.35" width="176.62" height="140.74"/>
          <rect class="cls-2" x="585.03" y="2236.87" width="377.16" height="177.54"/>
          <g class="cls-89">
            <path class="cls-46" d="m870.3,1886.8c-1.56-1.42-70.16,3.32-67.64-2.72-2.81-6.01,66.4-1.33,67.64-2.73,3.52-.05,3.55,5.5,0,5.45Z"/>
            <path class="cls-46" d="m808.18,1911.64h-26.25c-3.53.05-3.54-5.5,0-5.45,0,0,26.25,0,26.25,0,3.53-.05,3.54,5.5,0,5.45Z"/>
            <path class="cls-46" d="m792.99,2008.22h-41.42c-1.51,0-2.72-1.22-2.72-2.72s1.22-2.72,2.72-2.72h41.42c3.52-.05,3.54,5.5,0,5.45Z"/>
            <path class="cls-46" d="m837.16,2056.52h-23.5c-3.53.05-3.54-5.5,0-5.45,0,0,23.5,0,23.5,0,3.53-.05,3.54,5.5,0,5.45Z"/>
            <path class="cls-46" d="m667.45,2143.45h-23.5c-3.53.05-3.54-5.5,0-5.45,0,0,23.5,0,23.5,0,3.53-.05,3.54,5.5,0,5.45Z"/>
            <path class="cls-46" d="m816.43,2179.32c-1.52-1.32-62.11,3.16-59.3-2.72-2.95-5.88,58.1-1.42,59.3-2.73,3.52-.05,3.55,5.5,0,5.45Z"/>
            <path class="cls-46" d="m835.8,2237.28h-17.99c-1.51,0-2.72-1.22-2.72-2.72s1.22-2.72,2.72-2.72h17.99c3.53-.05,3.54,5.5,0,5.45Z"/>
            <path class="cls-46" d="m946.17,2136.55h-24.88c-1.51,0-2.72-1.22-2.72-2.72s1.22-2.72,2.72-2.72h24.88c3.53-.05,3.54,5.5,0,5.45Z"/>
            <path class="cls-46" d="m678.44,2260.73h-9.66c-3.53.05-3.54-5.5,0-5.45,0,0,9.66,0,9.66,0,3.53-.05,3.54,5.5,0,5.45Z"/>
          </g>
          <g class="cls-80">
            <path class="cls-46" d="m154.48,1804.01h-82.81c-1.51,0-2.72-1.22-2.72-2.72s1.22-2.72,2.72-2.72h82.81c3.51-.05,3.55,5.5,0,5.45Z"/>
            <path class="cls-46" d="m310.87,1842.64h-49.71c-1.51,0-2.72-1.22-2.72-2.72s1.22-2.72,2.72-2.72h49.71c3.52-.05,3.55,5.5,0,5.45Z"/>
            <path class="cls-46" d="m500.53,1798.49c-1.47-1.5-84.79,3.44-82.03-2.72-3.27-6.13,81.06-1.25,82.03-2.73,3.51-.05,3.55,5.5,0,5.45Z"/>
            <path class="cls-46" d="m349.55,1940.15h-23.99c-1.51,0-2.72-1.22-2.72-2.72s1.22-2.72,2.72-2.72h23.99c3.53-.05,3.54,5.5,0,5.45Z"/>
            <path class="cls-46" d="m66.41,2043.18h-26.02c-3.53.05-3.54-5.5,0-5.45,0,0,26.02,0,26.02,0,3.53-.05,3.54,5.5,0,5.45Z"/>
            <path class="cls-46" d="m42.23,2074.46h-12.88c-1.51,0-2.72-1.22-2.72-2.72s1.22-2.72,2.72-2.72h12.88c3.53-.05,3.54,5.5,0,5.45Z"/>
            <path class="cls-46" d="m336.88,2252.92h-24.2c-3.53.05-3.54-5.5,0-5.45,0,0,24.2,0,24.2,0,3.53-.05,3.54,5.5,0,5.45Z"/>
            <path class="cls-46" d="m349.48,2295.23h-18.4c-1.51,0-2.72-1.22-2.72-2.72s1.22-2.72,2.72-2.72h18.4c3.53-.05,3.54,5.5,0,5.45Z"/>
            <path class="cls-46" d="m585.38,1872.08h-37.21c-1.51,0-2.72-1.22-2.72-2.72s1.22-2.72,2.72-2.72h37.21c3.52-.05,3.54,5.5,0,5.45Z"/>
            <path class="cls-46" d="m586.81,1897.84h-11.04c-3.53.05-3.54-5.5,0-5.45,0,0,11.04,0,11.04,0,3.53-.05,3.54,5.5,0,5.45Z"/>
            <path class="cls-46" d="m651.2,2010.06h-31.28c-3.53.05-3.54-5.5,0-5.45,0,0,31.28,0,31.28,0,3.53-.05,3.54,5.5,0,5.45Z"/>
            <path class="cls-46" d="m588.65,2035.82h-11.04c-1.51,0-2.72-1.22-2.72-2.72s1.22-2.72,2.72-2.72h11.04c3.53-.05,3.54,5.5,0,5.45Z"/>
            <path class="cls-46" d="m888.53,2026.62h-23.92c-1.51,0-2.72-1.22-2.72-2.72s1.22-2.72,2.72-2.72h23.92c3.53-.05,3.54,5.5,0,5.45Z"/>
            <path class="cls-46" d="m941.94,1945.67h-33.17c-1.51,0-2.72-1.22-2.72-2.72s1.22-2.72,2.72-2.72h33.17c3.53-.05,3.54,5.5,0,5.45Z"/>
            <path class="cls-46" d="m912.45,1899.68h-14.72c-1.51,0-2.72-1.22-2.72-2.72s1.22-2.72,2.72-2.72h14.72c3.53-.05,3.54,5.5,0,5.45Z"/>
            <path class="cls-46" d="m967.7,1850h-27.66c-3.53.05-3.54-5.5,0-5.45,0,0,27.66,0,27.66,0,3.53-.05,3.54,5.5,0,5.45Z"/>
            <path class="cls-46" d="m958.67,2114.93h-7.59c-3.53.05-3.54-5.5,0-5.45,0,0,7.59,0,7.59,0,3.53-.05,3.54,5.5,0,5.45Z"/>
            <path class="cls-46" d="m1127.72,1811.37h-108.56c-1.51,0-2.72-1.22-2.72-2.72s1.22-2.72,2.72-2.72h108.56c3.5-.05,3.56,5.5,0,5.45Z"/>
            <path class="cls-46" d="m1146.1,1837.12h-25.76c-3.53.05-3.54-5.5,0-5.45,0,0,25.76,0,25.76,0,3.53-.05,3.54,5.5,0,5.45Z"/>
            <path class="cls-46" d="m1412.9,1807.69c-1.33-1.35-66.45,3.2-63.46-2.72-3.26-5.9,62.44-1.4,63.46-2.73,3.52-.05,3.55,5.5,0,5.45Z"/>
            <path class="cls-46" d="m1455.29,1833.44h-16.66c-1.51,0-2.72-1.22-2.72-2.72s1.22-2.72,2.72-2.72h16.66c3.53-.05,3.54,5.5,0,5.45Z"/>
            <path class="cls-46" d="m1206.88,1929.11h-27.66c-3.53.05-3.54-5.5,0-5.45,0,0,27.66,0,27.66,0,3.53-.05,3.54,5.5,0,5.45Z"/>
            <path class="cls-46" d="m1484.9,2065.26h-24.2c-3.53.05-3.54-5.5,0-5.45,0,0,24.2,0,24.2,0,3.53-.05,3.54,5.5,0,5.45Z"/>
            <path class="cls-46" d="m1460.7,1940.15h-23.92c-1.51,0-2.72-1.22-2.72-2.72s1.22-2.72,2.72-2.72h23.92c3.53-.05,3.54,5.5,0,5.45Z"/>
            <path class="cls-46" d="m1466.22,2223.48h-14.72c-1.51,0-2.72-1.22-2.72-2.72s1.22-2.72,2.72-2.72h14.72c3.53-.05,3.54,5.5,0,5.45Z"/>
            <path class="cls-46" d="m1479.1,2306.27h-12.88c-3.53.05-3.54-5.5,0-5.45,0,0,12.88,0,12.88,0,3.53-.05,3.54,5.5,0,5.45Z"/>
            <path class="cls-46" d="m1197.61,2118.61h-23.92c-1.51,0-2.72-1.22-2.72-2.72s1.22-2.72,2.72-2.72h23.92c3.53-.05,3.54,5.5,0,5.45Z"/>
            <path class="cls-46" d="m1216.01,2234.51h-25.76c-3.53.05-3.54-5.5,0-5.45,0,0,25.76,0,25.76,0,3.53-.05,3.54,5.5,0,5.45Z"/>
            <path class="cls-46" d="m1186.57,2330.19h-11.04c-1.51,0-2.72-1.22-2.72-2.72s1.22-2.72,2.72-2.72h11.04c3.53-.05,3.54,5.5,0,5.45Z"/>
            <path class="cls-46" d="m86.43,1682.58h-42.36c-1.51,0-2.72-1.22-2.72-2.72s1.22-2.72,2.72-2.72h42.36c3.52-.05,3.54,5.5,0,5.45Z"/>
            <path class="cls-46" d="m182.17,1579.55c-1.33-1.35-66.54,3.2-63.55-2.72-3.27-5.9,62.53-1.4,63.55-2.73,3.52-.05,3.55,5.5,0,5.45Z"/>
            <path class="cls-46" d="m75.41,1515.16h-29.5c-3.53.05-3.54-5.5,0-5.45,0,0,29.49,0,29.49,0,3.53-.05,3.54,5.5,0,5.45Z"/>
            <path class="cls-46" d="m450.7,1675.22h-46.03c-1.51,0-2.72-1.22-2.72-2.72s1.22-2.72,2.72-2.72h46.03c3.52-.05,3.54,5.5,0,5.45Z"/>
            <path class="cls-46" d="m463.61,1647.63h-25.82c-3.53.05-3.54-5.5,0-5.45,0,0,25.82,0,25.82,0,3.53-.05,3.54,5.5,0,5.45Z"/>
            <path class="cls-46" d="m470.9,1515.16c-1.51-1.33-62.53,3.17-59.76-2.72,0-1.51,1.22-2.73,2.72-2.73h57.03c3.52-.05,3.55,5.5,0,5.45Z"/>
            <path class="cls-46" d="m298.08,1513.32h-14.83c-3.53.05-3.54-5.5,0-5.45,0,0,14.83,0,14.83,0,3.53-.05,3.54,5.5,0,5.45Z"/>
          </g>
          <path class="cls-26" d="m568.75,2094.59c0-45.6-39.51-81.98-86.16-76.77-61.17,4.64-90.5,86.39-48.14,128.89.77.85.21,2.19-.94,2.19h-10.95v250.61h137.83v-250.61c-30.77,2.09,8.73-6.43,8.35-54.3Z"/>
          <path class="cls-40" d="m1124.97,2090.4c0-45.6-39.51-81.98-86.16-76.77-61.17,4.64-90.51,86.39-48.14,128.89.77.85.21,2.19-.94,2.19h-10.95v250.61h137.83v-250.61c-30.77,2.09,8.73-6.43,8.35-54.3Z"/>
          <path class="cls-15" d="m1410.85,2092.59c0-45.6-39.5-81.98-86.16-76.77-61.17,4.64-90.51,86.39-48.14,128.89.77.85.21,2.19-.94,2.19h-10.95v250.61h137.83v-250.61c-30.77,2.09,8.73-6.43,8.35-54.3Z"/>
          <rect class="cls-54" x="958.09" y="1888.86" width="563.89" height="20.24"/>
          <polygon class="cls-30" points="874.87 1608.38 1504.08 1608.38 1559.27 1773.96 874.87 1773.96 874.87 1608.38"/>
          <g>
            <polygon class="cls-3" points="1075.4 1776.41 1021.07 1610.83 990.71 1610.83 1045.05 1776.41 1075.4 1776.41"/>
            <polygon class="cls-64" points="1006.41 1776.41 952.08 1610.83 921.72 1610.83 976.05 1776.41 1006.41 1776.41"/>
            <polygon class="cls-4" points="1144.39 1776.41 1090.06 1610.83 1059.71 1610.83 1114.04 1776.41 1144.39 1776.41"/>
            <polygon class="cls-39" points="1213.39 1776.41 1159.05 1610.83 1128.7 1610.83 1183.03 1776.41 1213.39 1776.41"/>
            <polygon class="cls-11" points="1282.38 1776.41 1228.05 1610.83 1197.69 1610.83 1252.02 1776.41 1282.38 1776.41"/>
            <polygon class="cls-31" points="1351.37 1776.41 1297.04 1610.83 1266.68 1610.83 1321.01 1776.41 1351.37 1776.41"/>
            <polygon class="cls-27" points="1420.36 1776.41 1366.03 1610.83 1335.67 1610.83 1390 1776.41 1420.36 1776.41"/>
            <polygon class="cls-61" points="1489.35 1776.41 1435.02 1610.83 1404.66 1610.83 1459 1776.41 1489.35 1776.41"/>
            <polygon class="cls-28" points="1558.34 1776.41 1504.01 1610.83 1473.66 1610.83 1527.99 1776.41 1558.34 1776.41"/>
          </g>
          <rect class="cls-62" x="31.85" y="1466.63" width="539.98" height="31.28"/>
          <rect class="cls-50" x="20.67" y="1760.08" width="539.98" height="25.76"/>
          <rect class="cls-73" x="998.14" y="1773.71" width="539.98" height="25.76"/>
          <polygon class="cls-69" points="684.45 1209.22 281.54 1209.22 .06 1441.04 684.45 1441.04 684.45 1209.22"/>
          <rect class="cls-66" x=".06" y="1439.04" width="599.77" height="31.28"/>
          <g>
            <polygon class="cls-19" points="278.62 1207.22 0 1439.04 30.36 1439.04 308.98 1207.22 278.62 1207.22"/>
            <polygon class="cls-36" points="347.61 1207.22 68.99 1439.04 99.35 1439.04 377.97 1207.22 347.61 1207.22"/>
            <polygon class="cls-5" points="416.6 1207.22 137.98 1439.04 168.34 1439.04 446.96 1207.22 416.6 1207.22"/>
            <polygon class="cls-22" points="485.6 1207.22 206.98 1439.04 237.33 1439.04 515.95 1207.22 485.6 1207.22"/>
            <polygon class="cls-34" points="554.59 1207.22 275.97 1439.04 306.32 1439.04 584.94 1207.22 554.59 1207.22"/>
            <polygon class="cls-55" points="646.8 1207.22 623.58 1207.22 344.96 1439.04 375.32 1439.04 646.8 1213.16 646.8 1207.22"/>
            <polygon class="cls-79" points="646.8 1245.31 413.95 1439.04 444.31 1439.04 646.8 1270.56 646.8 1245.31"/>
            <polygon class="cls-1" points="646.8 1302.71 482.94 1439.04 513.3 1439.04 646.8 1327.96 646.8 1302.71"/>
          </g>
          <g class="cls-86">
            <path class="cls-46" d="m572.69,1227.53h-43.31c-2.07,0-3.75-1.68-3.75-3.75s1.68-3.75,3.75-3.75h43.31c4.85-.07,4.87,7.57,0,7.5Z"/>
            <path class="cls-46" d="m497.77,1227.53h-210.71c-2.07,0-3.75-1.68-3.75-3.75s1.68-3.75,3.75-3.75h210.71c4.8-.07,4.91,7.57,0,7.5Z"/>
          </g>
          <rect class="cls-57" x="18.86" y="1739.84" width="563.89" height="31.28"/>
          <rect class="cls-25" x="27.16" y="1888.86" width="563.89" height="20.24"/>
          <path class="cls-48" d="m964.29,307.61c-.76,221.1-385.64,221.08-386.35-.01.75-221.09,385.63-221.07,386.35.01Z"/>
          <path class="cls-72" d="m771.11,138.42c-13.23,0-26.15,1.17-38.64,3.39,202.63,33.02,202.52,298.61,0,331.59,271.26,42.76,322.18-325.31,38.64-334.98Z"/>
          <rect class="cls-23" x="544.82" y="335.21" width="452.59" height="1280.49"/>
          <g class="cls-84">
            <path class="cls-46" d="m749.44,609.95c-.23-6.42,3.59-9.12,6.19-15.78,15.2-40.5-50-54.07-52.13-10.75,0,6.92,2.61,13.22,6.87,18.02,11.42,16.5-4.93,18.56-4.93,40.21,3.96,89.6-18.99,75.93,47.55,76.67,3.22,0,5.82-2.61,5.82-5.82v-72.79c0-17.47-8.99-18.7-9.38-29.76Z"/>
            <path class="cls-46" d="m792.78,609.95c.23-6.42-3.59-9.12-6.19-15.78-15.2-40.5,50.01-54.07,52.13-10.75,0,6.92-2.61,13.22-6.87,18.02-11.42,16.5,4.93,18.56,4.93,40.21-3.96,89.6,18.99,75.93-47.55,76.67-3.22,0-5.82-2.61-5.82-5.82v-72.79c0-17.47,8.99-18.7,9.38-29.76Z"/>
          </g>
          <rect class="cls-43" x="544.82" y="395.92" width="452.59" height="91.07"/>
          <rect class="cls-13" x="517.22" y="304.85" width="507.78" height="151.78"/>
          <g>
            <polygon class="cls-29" points="587.59 365.56 517.22 365.56 517.22 213.78 572.41 213.78 587.59 365.56"/>
            <polygon class="cls-67" points="954.63 365.56 1025 365.56 1025 213.78 969.81 213.78 954.63 365.56"/>
            <polygon class="cls-45" points="705.91 365.56 617.6 365.56 634.16 213.78 689.36 213.78 705.91 365.56"/>
            <polygon class="cls-70" points="815.26 365.56 726.96 365.56 743.51 213.78 798.71 213.78 815.26 365.56"/>
            <polygon class="cls-60" points="924.62 365.56 836.31 365.56 852.87 213.78 908.06 213.78 924.62 365.56"/>
          </g>
          <path class="cls-10" d="m667.16,889.02c-3.4.29-6.13-3.69-5.81-5.83,0-1.26,0-52.8,0-53.02.1-3.12,2.66-5.62,5.81-5.62s5.81,2.6,5.81,5.81v52.85c0,3.21-2.6,5.81-5.81,5.81Z"/>
          <path class="cls-18" d="m899.89,1229.34c-4.85.42-8.75-5.26-8.29-8.32,0-1.76,0-75.32,0-75.6.12-4.48,3.79-8.07,8.29-8.07s8.29,3.71,8.29,8.29v75.4c0,4.58-3.71,8.29-8.29,8.29Z"/>
          <rect class="cls-56" x="524.39" y="1615.65" width="507.78" height="99.35"/>
          <path class="cls-58" d="m512.52,1748.12s26.59,35.87,26.59,55.19q0-12.88,0,231.81h162.25c-1.45-34.8,12.51-108.5,41.73-130.43,0,0,30.1-20.43,30.1-20.43l27.85,20.36c28.02,23.1,40.29,95.84,38.83,130.5h162.25v-231.81c0-19.32,26.59-55.19,26.59-55.19,0-18.4-516.2-18.4-516.2,0Z"/>
          <rect class="cls-41" x="666.6" y="2234.57" width="29.99" height="182.14"/>
          <rect class="cls-46" x="686.84" y="2234.57" width="9.74" height="182.14"/>
          <rect class="cls-35" x="663.47" y="2204.21" width="36.25" height="35.88"/>
          <rect class="cls-78" x="553.65" y="2234.57" width="44.98" height="182.14"/>
          <rect class="cls-46" x="584.74" y="2234.57" width="13.89" height="182.14"/>
          <rect class="cls-65" x="546.39" y="2204.21" width="59.51" height="34.96"/>
          <path class="cls-44" d="m650.86,2002.76v-120.51h-109.88v333h68.1v-72.61c0-16.89,11.36-30.59,25.37-30.59s25.37,13.69,25.37,30.59v72.61h43.68v-212.49h-52.65Z"/>
          <rect class="cls-14" x="842.08" y="2234.57" width="29.99" height="182.14"/>
          <rect class="cls-46" x="842.08" y="2234.57" width="9.74" height="182.14"/>
          <rect class="cls-52" x="838.95" y="2204.21" width="36.25" height="35.88"/>
          <rect class="cls-51" x="940.04" y="2234.57" width="44.98" height="182.14"/>
          <rect class="cls-46" x="940.04" y="2234.57" width="13.89" height="182.14"/>
          <rect class="cls-32" x="932.78" y="2204.21" width="59.51" height="34.96"/>
          <path class="cls-33" d="m887.81,2002.76v-120.51h109.88v333h-68.1v-72.61c0-16.89-11.36-30.59-25.37-30.59s-25.37,13.69-25.37,30.59v72.61h-43.68v-212.49h52.65Z"/>
          <g class="cls-88">
            <path class="cls-46" d="m290.28,1554.94h0c-31.97,23.2-22.83,58.36-23.92,91.99h47.83c-1.09-33.74,8.06-68.73-23.92-91.99Z"/>
            <path class="cls-46" d="m347.32,1554.94h0c-31.97,23.2-22.83,58.36-23.92,91.99h47.83c-1.09-33.74,8.06-68.73-23.92-91.99Z"/>
          </g>
          <rect class="cls-74" x="524.39" y="1615.65" width="507.78" height="30.36"/>
          <polygon class="cls-9" points="1070.81 1626.69 485.76 1626.69 778.28 1334.17 1070.81 1626.69"/>
          <g>
            <polygon class="cls-20" points="552.91 1628.42 552.91 1562.19 522.55 1592.55 522.55 1628.42 552.91 1628.42"/>
            <polygon class="cls-38" points="621.9 1628.42 621.9 1493.2 591.55 1523.56 591.55 1628.42 621.9 1628.42"/>
            <polygon class="cls-37" points="690.89 1628.42 690.89 1424.21 660.54 1454.56 660.54 1628.42 690.89 1628.42"/>
            <polygon class="cls-63" points="759.89 1628.42 759.89 1355.22 729.53 1385.57 729.53 1628.42 759.89 1628.42"/>
            <polygon class="cls-7" points="828.88 1628.42 828.88 1385.57 798.52 1355.22 798.52 1628.42 828.88 1628.42"/>
            <polygon class="cls-21" points="897.87 1628.42 897.87 1454.56 867.51 1424.21 867.51 1628.42 897.87 1628.42"/>
            <polygon class="cls-71" points="966.86 1628.42 966.86 1523.56 936.51 1493.2 936.51 1628.42 966.86 1628.42"/>
            <polygon class="cls-53" points="1035.85 1628.42 1035.85 1592.55 1005.5 1562.19 1005.5 1628.42 1035.85 1628.42"/>
          </g>
          <rect class="cls-24" x="524.39" y="1699.82" width="507.78" height="15.18"/>
          <g>
            <path class="cls-46" d="m567.86,1713.62h-34.5c.45-14.68-4.63-39.3,17.25-40.02,21.88.71,16.79,25.37,17.25,40.02Z"/>
            <path class="cls-46" d="m609.25,1713.62h-34.5c.45-14.68-4.63-39.3,17.25-40.02,21.88.71,16.79,25.37,17.25,40.02Z"/>
            <path class="cls-46" d="m650.65,1713.62h-34.5c.45-14.68-4.63-39.3,17.25-40.02,21.88.71,16.79,25.37,17.25,40.02Z"/>
            <path class="cls-46" d="m692.04,1713.62h-34.5c.45-14.68-4.63-39.3,17.25-40.02,21.88.71,16.79,25.37,17.25,40.02Z"/>
            <path class="cls-46" d="m733.44,1713.62h-34.5c.45-14.68-4.63-39.3,17.25-40.02,21.88.71,16.79,25.37,17.25,40.02Z"/>
            <path class="cls-46" d="m774.83,1713.62h-34.5c.45-14.68-4.63-39.3,17.25-40.02,21.88.71,16.79,25.37,17.25,40.02Z"/>
            <path class="cls-46" d="m816.23,1713.62h-34.5c.45-14.68-4.63-39.3,17.25-40.02,21.88.71,16.79,25.37,17.25,40.02Z"/>
            <path class="cls-46" d="m857.62,1713.62h-34.5c.45-14.68-4.63-39.3,17.25-40.02,21.88.71,16.79,25.37,17.25,40.02Z"/>
            <path class="cls-46" d="m899.02,1713.62h-34.5c.45-14.68-4.63-39.3,17.25-40.02,21.88.71,16.79,25.37,17.25,40.02Z"/>
            <path class="cls-46" d="m940.41,1713.62h-34.5c.45-14.68-4.63-39.3,17.25-40.02,21.88.71,16.79,25.37,17.25,40.02Z"/>
            <path class="cls-46" d="m981.81,1713.62h-34.5c.45-14.68-4.63-39.3,17.25-40.02,21.88.71,16.79,25.37,17.25,40.02Z"/>
            <path class="cls-46" d="m1023.2,1713.62h-34.5c.45-14.68-4.63-39.3,17.25-40.02,21.88.71,16.79,25.37,17.25,40.02Z"/>
          </g>
          <g class="cls-87">
            <path class="cls-46" d="m861.93,1745.32c-2.8-2.66-292.48,5.13-291.96-2.72-.59-7.89,289.23-.05,291.96-2.74,3.45-.05,3.59,5.51,0,5.46Z"/>
            <path class="cls-46" d="m953.52,1770.16h-160.06c-1.51,0-2.72-1.22-2.72-2.72s1.22-2.72,2.72-2.72h160.06c3.49-.05,3.57,5.5,0,5.45Z"/>
            <path class="cls-46" d="m887.29,1793.62c-2.77-2.58-239.22,5.01-238.67-2.72-.59-7.74,235.96-.16,238.68-2.74,3.46-.05,3.58,5.51,0,5.45Z"/>
            <path class="cls-46" d="m828.09,1825.35c-2.81-2.65-257.24,5.12-256.74-2.72-.54-7.85,253.99-.08,256.75-2.74,3.46-.05,3.58,5.51,0,5.46Z"/>
            <path class="cls-46" d="m985.26,1826.73c-1.64-1.42-68.58,3.31-66.2-2.72-2.67-6.01,64.88-1.33,66.2-2.73,3.52-.05,3.55,5.5,0,5.45Z"/>
            <path class="cls-46" d="m872.14,1873.65h-31.77c-1.51,0-2.72-1.22-2.72-2.72s1.22-2.72,2.72-2.72h31.77c3.53-.05,3.54,5.5,0,5.45Z"/>
            <path class="cls-46" d="m707.94,1887.45h-31.76c-1.51,0-2.72-1.22-2.72-2.72s1.22-2.72,2.72-2.72h31.76c3.53-.05,3.54,5.5,0,5.45Z"/>
            <path class="cls-46" d="m684.45,1944.02h-12.42c-1.51,0-2.72-1.22-2.72-2.72s1.22-2.72,2.72-2.72h12.42c3.53-.05,3.54,5.5,0,5.45Z"/>
            <path class="cls-46" d="m884.58,1938.5h-20.74c-3.53.05-3.54-5.5,0-5.45,0,0,20.74,0,20.74,0,3.53-.05,3.54,5.5,0,5.45Z"/>
          </g>
          <g class="cls-85">
            <path class="cls-46" d="m1480.62,1628h-51.05c-2.25,0-4.07-1.82-4.07-4.07s1.82-4.07,4.07-4.07h51.05c5.27-.08,5.29,8.22,0,8.14Z"/>
            <path class="cls-46" d="m1392.31,1628h-248.37c-2.25,0-4.07-1.82-4.07-4.07s1.82-4.07,4.07-4.07h248.37c5.21-.08,5.33,8.22,0,8.14Z"/>
          </g>
          <g class="cls-83">
            <path class="cls-46" d="m778.28,1312.21c-3,0-5.43-2.43-5.43-5.43v-69.68c0-3,2.43-5.43,5.43-5.43s5.43,2.43,5.43,5.43v69.68c0,3-2.43,5.43-5.43,5.43Z"/>
            <path class="cls-46" d="m793.46,1331.62c-.09,19.85-30.27,19.85-30.36,0,.09-19.85,30.27-19.85,30.36,0Z"/>
            <path class="cls-46" d="m790.7,1306.78c-.07,16.24-24.77,16.24-24.84,0,.07-16.24,24.77-16.24,24.84,0Z"/>
            <path class="cls-46" d="m788.63,1284.7c-.06,13.53-20.64,13.53-20.7,0,.06-13.53,20.64-13.53,20.7,0Z"/>
            <path class="cls-46" d="m788.63,1266.08c-.06,13.53-20.64,13.53-20.7,0,.06-13.53,20.64-13.53,20.7,0Z"/>
          </g>
          <rect class="cls-8" x="502.85" y="1715.47" width="539.98" height="36.64"/>
          <path class="cls-68" d="m290.11,2089.4c0-45.6-39.51-81.98-86.16-76.77-61.17,4.64-90.5,86.39-48.14,128.89.77.85.21,2.19-.94,2.19h-10.95v250.61h137.83v-250.61c-30.77,2.09,8.73-6.43,8.35-54.3Z"/>
        </g>
      </g>
    </g>
  </g>
</svg>